<svg width="32" height="32" viewBox="0 0 32 32" fill="none" xmlns="http://www.w3.org/2000/svg">
  <!-- Car Body Front -->
  <path d="M8 20C8 18.8954 8.89543 18 10 18H22C23.1046 18 24 18.8954 24 20V22C24 23.1046 23.1046 24 22 24H10C8.89543 24 8 23.1046 8 22V20Z" fill="black"/>
  
  <!-- Car Top Front -->
  <path d="M12 16C12 14.8954 12.8954 14 14 14H18C19.1046 14 20 14.8954 20 16V18H12V16Z" fill="black"/>
  
  <!-- Windows Front -->
  <path d="M13 15C13 14.4477 13.4477 14 14 14H18C18.5523 14 19 14.4477 19 15V17H13V15Z" fill="black"/>
  
  <!-- Headlights -->
  <circle cx="10" cy="20" r="1.5" fill="black"/>
  <circle cx="22" cy="20" r="1.5" fill="black"/>
  
  <!-- Grill -->
  <rect x="13" y="21" width="6" height="1" fill="black"/>
  
  <!-- Bumper -->
  <rect x="9" y="23" width="14" height="1" fill="black"/>
</svg>
